# xmcd
#
# Track frame offsets: 
#        150
#        14465
#        37472
#        56480
#        69160
#        88228
#        105109
#        122334
#        137044
#
# Disc length: 2082 seconds
#
# Revision: 0
# Processed by: cddbd v1.5.2PL0 Copyright (c) Steve Scherf et al.
# Submitted via: ExactAudioCopy v0.99pb5
#
DISCID=72082009
DTITLE=Mars Hill - Team Strike Force
DYEAR=2007
DGENRE=Christian Rock
TTITLE0=Every tongue sings
TTITLE1=Post concussion
TTITLE2=Mystery of God as man
TTITLE3=For your greatness
TTITLE4=All creatures
TTITLE5=Rabbi Abba
TTITLE6=Destructor
TTITLE7=Emphasis
TTITLE8=Resonance
EXTD=
EXTT0=
EXTT1=
EXTT2=
EXTT3=
EXTT4=
EXTT5=
EXTT6=
EXTT7=
EXTT8=
PLAYORDER=
